<?xml version="1.0" standalone="no"?>
<!DOCTYPE svg PUBLIC "-//W3C//DTD SVG 20010904//EN"
 "http://www.w3.org/TR/2001/REC-SVG-20010904/DTD/svg10.dtd">
<svg version="1.0" xmlns="http://www.w3.org/2000/svg"
 width="1000.000000pt" height="1000.000000pt" viewBox="0 0 1000.000000 1000.000000"
 preserveAspectRatio="xMidYMid meet">
<metadata>
Created by potrace 1.11, written by Peter Selinger 2001-2013
</metadata>
<g transform="translate(0.000000,1000.000000) scale(0.100000,-0.100000)"
fill="#000000" stroke="none">
<path d="M4675 9990 c-4 -6 -22 -9 -41 -7 -19 3 -37 0 -40 -5 -3 -5 -11 -4
-19 2 -9 8 -17 6 -29 -5 -9 -9 -16 -13 -16 -8 0 5 -9 9 -20 10 -12 1 -18 -3
-14 -9 4 -6 -3 -5 -16 2 -13 7 -20 8 -16 2 3 -6 2 -13 -4 -17 -5 -3 -10 0 -10
7 0 9 -3 9 -10 -2 -6 -9 -10 -10 -10 -3 0 8 -9 9 -27 4 -16 -5 -42 -8 -60 -7
-17 1 -31 -3 -30 -9 1 -5 -17 -9 -40 -8 -33 0 -43 -3 -44 -16 0 -11 -2 -12 -6
-3 -4 10 -8 10 -21 0 -13 -11 -15 -11 -7 2 6 12 5 13 -6 3 -7 -7 -26 -13 -42
-13 -15 0 -26 -4 -23 -8 3 -5 -1 -9 -9 -9 -8 0 -12 4 -9 9 3 4 0 8 -5 8 -6 0
-11 -5 -11 -11 0 -5 -8 -9 -18 -7 -11 2 -27 -4 -37 -12 -11 -9 -16 -10 -11 -2
4 6 2 12 -3 12 -6 0 -11 -4 -11 -10 0 -5 -13 -10 -30 -10 -17 0 -30 -5 -30
-12 0 -9 -4 -8 -10 2 -6 10 -10 11 -10 3 0 -8 -14 -13 -36 -13 -21 0 -33 -4
-29 -10 5 -8 -48 -15 -58 -7 -2 1 -11 -6 -20 -15 -11 -11 -28 -15 -49 -13 -24
3 -29 2 -18 -5 8 -5 13 -10 10 -11 -3 0 -16 -3 -30 -5 -14 -2 -32 -6 -40 -7
-8 -2 -30 -11 -49 -20 -19 -9 -42 -17 -52 -17 -9 0 -19 -5 -21 -11 -2 -7 -18
-12 -35 -13 -17 0 -29 -4 -26 -8 2 -5 -3 -8 -12 -8 -10 0 -13 -5 -9 -12 5 -8
0 -7 -11 2 -10 8 -16 10 -12 4 4 -7 0 -15 -9 -18 -10 -4 -13 -2 -9 7 4 6 0 4
-8 -5 -8 -10 -17 -15 -20 -11 -4 3 -13 1 -20 -5 -8 -7 -16 -10 -19 -7 -3 3
-13 -4 -22 -14 -10 -11 -25 -17 -34 -14 -11 5 -13 3 -7 -7 6 -10 3 -12 -14 -7
-14 3 -24 0 -28 -9 -3 -8 -11 -14 -19 -14 -8 0 -14 -6 -14 -12 0 -9 -4 -8 -10
2 -7 10 -10 11 -10 2 0 -7 -12 -18 -27 -24 -16 -7 -40 -20 -54 -30 -14 -9 -29
-15 -33 -11 -3 3 -6 1 -6 -6 0 -7 -7 -11 -15 -8 -8 4 -17 1 -21 -5 -4 -7 -3
-8 4 -4 7 4 12 5 12 1 0 -6 -45 -25 -67 -29 -7 -1 -16 -6 -20 -11 -4 -4 -2 -5
6 0 10 6 12 4 7 -4 -5 -7 -14 -10 -22 -7 -8 3 -14 1 -14 -5 0 -6 -7 -8 -16 -5
-14 6 -15 4 -3 -10 11 -13 11 -15 -2 -13 -21 4 -60 -11 -54 -21 3 -5 -6 -12
-20 -16 -14 -3 -25 -10 -25 -16 0 -5 -4 -7 -9 -4 -5 3 -11 -1 -15 -9 -3 -8
-12 -15 -21 -15 -8 0 -15 -4 -15 -10 0 -5 -9 -10 -20 -10 -11 0 -19 -6 -18
-12 2 -7 -5 -12 -14 -10 -11 2 -18 -3 -18 -13 0 -8 -6 -14 -12 -13 -7 2 -12
-3 -10 -10 1 -8 -2 -11 -7 -8 -5 4 -16 -1 -24 -9 -9 -8 -20 -15 -26 -15 -5 0
-14 -7 -19 -16 -5 -8 -16 -16 -25 -18 -9 -1 -20 -6 -24 -11 -4 -4 -2 -5 4 -1
9 5 11 2 7 -8 -3 -9 -10 -13 -16 -10 -5 3 -16 -3 -24 -14 -7 -11 -34 -33 -59
-48 -25 -16 -45 -34 -45 -41 0 -6 -5 -15 -12 -19 -7 -5 -9 -2 -4 7 4 8 -1 4
-12 -8 -11 -12 -22 -19 -26 -16 -3 4 -6 -1 -6 -11 0 -9 -4 -15 -9 -11 -5 3
-12 -4 -16 -15 -3 -11 -11 -20 -16 -20 -6 0 -7 6 -3 13 5 8 3 8 -9 -2 -9 -7
-14 -17 -11 -22 3 -5 0 -9 -6 -9 -6 0 -8 -5 -5 -10 4 -6 3 -10 -2 -9 -20 3
-34 -2 -28 -11 3 -5 -1 -10 -10 -10 -9 0 -13 -4 -10 -10 3 -6 -4 -10 -17 -10
-18 0 -20 -2 -8 -10 15 -9 13 -11 -12 -14 -7 -1 -12 -9 -12 -18 1 -9 -4 -14
-11 -12 -15 6 -47 -35 -38 -49 3 -6 1 -7 -5 -3 -14 8 -44 -22 -36 -36 5 -7 2
-8 -5 -3 -15 8 -62 -39 -86 -86 -9 -16 -20 -29 -25 -29 -6 0 -10 -8 -10 -17 0
-15 -2 -16 -10 -3 -8 13 -10 12 -10 -3 0 -10 -7 -20 -15 -23 -8 -4 -15 -12
-15 -20 0 -7 -8 -18 -17 -23 -10 -6 -14 -11 -10 -11 4 0 2 -6 -5 -14 -7 -8
-16 -12 -20 -9 -8 4 -12 -21 -9 -41 1 -5 -5 -3 -14 4 -13 11 -15 10 -9 -4 3
-9 1 -16 -5 -16 -6 0 -11 -7 -11 -16 0 -8 -4 -13 -9 -9 -5 3 -12 -4 -16 -15
-4 -11 -11 -18 -16 -15 -5 4 -9 2 -9 -4 0 -5 6 -12 13 -14 7 -3 5 -6 -6 -6 -9
-1 -16 -7 -15 -13 2 -7 -3 -12 -10 -10 -6 1 -11 -1 -10 -5 3 -15 -14 -43 -23
-37 -5 3 -6 -3 -2 -12 4 -12 3 -15 -5 -10 -7 4 -12 1 -12 -8 0 -9 -5 -16 -11
-16 -6 0 -8 -7 -5 -16 4 -11 2 -15 -7 -11 -8 3 -14 -3 -15 -16 0 -12 -6 -23
-12 -25 -5 -2 -10 -10 -10 -18 0 -8 -7 -17 -15 -20 -8 -4 -12 -10 -9 -15 3 -5
0 -9 -5 -9 -6 0 -11 -7 -11 -15 0 -9 -6 -18 -14 -21 -8 -3 -13 -14 -11 -24 3
-13 -1 -17 -11 -13 -8 3 -14 2 -13 -3 4 -22 -2 -35 -13 -28 -8 5 -9 2 -5 -9 3
-10 2 -17 -4 -17 -6 0 -7 -4 -4 -10 3 -5 3 -10 -2 -10 -4 0 -17 -13 -28 -28
-19 -27 -19 -27 0 -12 19 14 19 13 0 -10 -28 -35 -58 -90 -48 -90 4 0 0 -7
-11 -15 -10 -7 -15 -18 -12 -23 3 -5 -1 -15 -9 -22 -8 -7 -15 -18 -15 -25 0
-8 -6 -16 -12 -18 -10 -4 -9 -6 1 -6 10 -1 7 -7 -8 -20 -16 -14 -18 -21 -9
-24 10 -4 10 -6 1 -6 -7 -1 -13 -8 -13 -17 0 -9 -5 -12 -12 -8 -7 4 -10 4 -6
0 8 -10 -11 -66 -22 -66 -5 0 -7 -12 -4 -26 4 -21 1 -25 -10 -21 -9 4 -15 3
-15 -1 4 -23 -2 -52 -10 -48 -5 3 -9 0 -8 -7 1 -39 -4 -58 -15 -51 -7 4 -8 3
-4 -5 4 -6 2 -19 -6 -28 -11 -14 -11 -15 0 -9 11 7 11 4 1 -12 -7 -12 -18 -18
-24 -14 -5 3 -4 -1 3 -10 9 -12 10 -18 2 -23 -6 -4 -9 -13 -6 -20 2 -7 -4 -21
-14 -30 -15 -14 -17 -22 -9 -36 7 -15 7 -19 -3 -17 -8 2 -13 -7 -12 -24 0 -16
-4 -28 -9 -28 -4 0 -5 -4 -2 -10 3 -5 2 -10 -3 -10 -5 0 -9 -12 -9 -27 0 -15
-6 -29 -12 -31 -6 -2 -11 -8 -11 -13 0 -6 6 -7 13 -3 9 6 9 4 -1 -7 -6 -7 -12
-24 -12 -37 0 -13 -4 -21 -9 -18 -4 3 -7 -7 -7 -22 1 -15 -5 -36 -14 -46 -8
-11 -10 -16 -3 -13 8 5 11 0 10 -12 0 -11 -5 -17 -9 -15 -4 3 -8 -13 -8 -35 0
-23 -4 -41 -10 -41 -5 0 -10 -5 -10 -11 0 -5 4 -8 9 -5 11 7 9 -14 -4 -34 -9
-14 -14 -51 -16 -109 -1 -18 -3 -21 -10 -10 -7 10 -9 6 -8 -16 0 -16 0 -32 -1
-35 -8 -22 -6 -40 3 -40 7 0 4 -5 -6 -11 -12 -7 -16 -17 -11 -31 4 -13 1 -24
-7 -29 -8 -5 -9 -9 -3 -9 6 0 10 -10 8 -22 -1 -13 -3 -42 -3 -66 -1 -24 -5
-41 -10 -38 -11 7 -8 -55 4 -74 5 -8 4 -11 -3 -6 -8 5 -11 -62 -11 -234 0
-180 3 -240 12 -240 8 0 8 -3 2 -8 -13 -9 -18 -35 -5 -27 5 3 10 -1 10 -10 0
-9 -4 -14 -8 -11 -5 3 -9 -1 -9 -9 0 -8 4 -12 8 -10 4 3 9 -2 13 -10 3 -8 0
-17 -6 -21 -7 -5 -8 -2 -3 6 6 9 4 11 -4 6 -9 -6 -8 -12 4 -26 10 -11 12 -21
7 -24 -12 -7 -3 -48 12 -58 8 -5 7 -8 -1 -8 -7 0 -13 -5 -13 -11 0 -5 5 -7 11
-3 8 4 8 0 0 -15 -8 -14 -8 -21 -1 -21 5 0 10 -8 10 -17 0 -15 -2 -16 -10 -3
-5 8 -10 11 -10 5 1 -5 7 -18 15 -29 10 -13 11 -24 4 -37 -6 -12 -6 -19 0 -19
5 0 8 -11 6 -25 -1 -15 4 -29 13 -34 11 -6 11 -10 3 -16 -9 -5 -9 -10 0 -21 6
-7 9 -20 6 -28 -3 -8 -1 -16 5 -18 6 -2 12 -11 14 -20 1 -12 -3 -15 -14 -11
-15 5 -15 4 0 -8 11 -9 18 -31 20 -61 2 -25 6 -44 10 -42 4 3 6 -9 4 -26 -2
-17 1 -33 7 -37 6 -4 7 -1 2 8 -5 8 -4 11 0 6 15 -13 17 -49 3 -42 -7 4 -6 1
2 -7 8 -7 14 -24 12 -37 -3 -17 0 -21 9 -15 9 5 11 2 6 -9 -3 -9 -1 -18 6 -21
9 -3 9 -5 0 -5 -6 -1 -9 -10 -6 -21 3 -11 9 -17 14 -14 5 3 6 -3 2 -12 -4 -10
-2 -15 4 -11 6 4 9 -6 8 -24 -1 -19 4 -33 12 -36 12 -5 12 -7 1 -14 -10 -7
-11 -9 0 -9 7 0 10 -4 7 -10 -3 -5 2 -10 12 -11 16 0 16 -1 -2 -9 -11 -5 -14
-9 -7 -9 7 -1 10 -5 7 -11 -3 -6 1 -7 10 -4 13 5 14 2 7 -17 -6 -14 -6 -32 0
-44 8 -18 8 -18 4 3 -2 12 0 20 5 16 5 -3 9 -16 9 -29 0 -13 5 -27 10 -30 6
-3 10 -16 10 -29 0 -12 5 -27 12 -34 9 -9 9 -12 -2 -12 -8 0 -1 -10 15 -21 17
-12 22 -19 13 -16 -12 4 -15 2 -11 -9 3 -7 9 -14 15 -14 5 0 6 -4 3 -10 -3 -5
0 -10 7 -10 8 0 14 -9 14 -19 0 -11 -4 -17 -9 -14 -11 6 15 -40 27 -48 5 -4 6
-11 2 -17 -3 -6 -1 -14 5 -18 8 -5 9 -3 4 6 -5 9 -4 11 3 6 7 -4 12 -18 12
-32 0 -13 5 -24 10 -24 6 0 10 -9 10 -20 0 -11 5 -20 10 -20 6 0 10 -12 10
-26 0 -14 4 -23 10 -19 10 6 14 -7 11 -32 -1 -6 4 -15 10 -19 8 -5 9 -3 4 6
-5 9 -4 11 3 6 7 -4 12 -18 12 -32 0 -13 5 -24 11 -24 6 0 9 -7 5 -15 -3 -9 3
-19 15 -26 11 -6 18 -16 16 -23 -3 -7 4 -18 15 -25 11 -7 17 -19 14 -27 -3 -8
-1 -14 4 -14 6 0 10 -7 10 -15 0 -8 5 -15 10 -15 6 0 10 -7 10 -16 0 -8 5 -12
10 -9 6 4 10 -5 10 -20 0 -15 4 -24 10 -20 6 3 10 -1 10 -10 0 -9 5 -13 10
-10 6 4 10 3 9 -2 -4 -22 2 -43 11 -38 5 3 10 -3 10 -14 0 -11 8 -26 18 -33
23 -16 44 -53 34 -62 -3 -4 2 -4 12 0 13 5 17 4 12 -4 -3 -6 -2 -13 4 -17 6
-4 8 -11 5 -16 -4 -5 -3 -9 2 -9 4 0 24 -19 43 -43 19 -23 26 -36 15 -28 -11
8 -4 -1 15 -20 19 -19 41 -46 49 -61 8 -16 16 -26 19 -23 6 6 32 -21 32 -34 0
-15 37 -51 44 -44 3 3 9 -3 13 -13 4 -10 14 -25 22 -32 13 -11 13 -12 1 -6 -8
5 -4 -6 10 -23 14 -18 31 -32 38 -32 7 -1 10 -5 7 -11 -3 -5 1 -10 10 -10 9 0
13 -4 10 -10 -3 -5 -1 -10 5 -10 15 0 41 -26 33 -34 -4 -3 -1 -6 6 -6 7 0 9
-5 5 -12 -6 -10 -4 -10 8 0 13 10 18 10 24 1 4 -8 3 -9 -4 -5 -7 4 -12 3 -12
-2 0 -6 7 -13 16 -16 9 -3 12 -11 8 -18 -5 -8 0 -7 11 2 17 13 18 13 14 0 -3
-8 8 -27 23 -42 15 -15 28 -24 28 -20 0 4 10 -8 21 -25 12 -18 25 -33 30 -33
4 0 24 -16 43 -35 22 -22 36 -30 40 -22 2 7 5 1 5 -12 1 -13 4 -21 7 -18 4 4
15 -3 25 -15 11 -11 19 -17 19 -13 0 4 10 -3 23 -16 13 -13 32 -29 43 -36 10
-6 18 -16 16 -22 -1 -6 5 -11 14 -11 8 0 12 -4 9 -10 -3 -5 0 -7 9 -4 9 3 20
-3 28 -15 7 -12 19 -21 26 -21 7 0 10 -5 7 -10 -3 -6 3 -10 15 -10 14 0 19 -4
14 -12 -5 -8 -2 -9 9 -5 11 4 17 1 17 -8 0 -8 7 -15 15 -15 8 0 15 -4 15 -9 0
-5 9 -11 21 -14 13 -4 18 -10 13 -18 -4 -8 -3 -10 5 -5 7 5 20 -1 32 -15 13
-15 19 -17 20 -8 0 8 4 4 9 -8 6 -15 15 -21 30 -18 11 2 18 0 15 -6 -4 -5 -1
-9 5 -9 6 0 8 -5 4 -12 -4 -6 -3 -8 4 -4 6 3 18 -1 26 -10 9 -8 16 -12 16 -7
0 4 4 3 8 -4 4 -6 14 -13 22 -15 8 -2 22 -10 30 -18 8 -8 21 -16 29 -18 8 -2
20 -11 27 -20 7 -9 17 -18 23 -18 6 -1 17 -2 24 -3 7 0 23 -10 34 -21 15 -14
23 -16 26 -7 4 9 6 9 6 0 1 -7 8 -13 17 -13 8 0 12 -5 9 -10 -4 -6 5 -10 20
-10 15 0 24 -4 20 -10 -3 -5 3 -10 13 -10 11 0 22 -7 26 -15 3 -8 12 -12 21
-9 9 4 15 1 15 -7 0 -11 3 -11 10 1 8 13 10 12 10 -4 0 -12 5 -16 14 -13 8 3
16 2 18 -3 2 -5 10 -10 18 -12 8 -2 18 -7 21 -11 3 -4 19 -10 35 -13 16 -3 34
-10 39 -15 7 -7 3 -8 -10 -4 -15 5 -16 4 -6 -3 7 -5 22 -7 34 -4 11 3 25 -1
31 -9 6 -8 18 -14 26 -14 8 1 23 -5 32 -13 10 -8 24 -12 33 -8 11 4 14 2 9 -6
-5 -8 -2 -9 10 -5 10 4 15 3 11 -3 -4 -6 5 -10 20 -10 16 0 24 -4 20 -11 -4
-6 -1 -10 6 -8 31 4 50 -1 43 -12 -5 -8 1 -10 20 -7 15 3 33 0 40 -7 7 -7 26
-15 42 -17 16 -1 32 -6 35 -11 3 -4 22 -9 42 -10 21 -2 42 -8 48 -14 6 -6 18
-9 25 -6 8 3 14 0 14 -7 0 -6 4 -8 10 -5 12 7 53 -19 43 -28 -3 -4 -1 -7 6 -7
7 0 10 -4 7 -9 -4 -5 -1 -11 5 -13 6 -2 12 -16 12 -31 0 -15 3 -24 8 -21 5 3
9 -9 9 -25 0 -23 5 -31 18 -31 14 0 15 -2 2 -10 -11 -7 -11 -10 -2 -10 7 0 11
-4 8 -9 -3 -5 1 -12 10 -15 14 -5 14 -9 3 -23 -10 -12 -10 -14 -1 -9 8 5 12 0
12 -18 0 -14 5 -28 10 -31 6 -3 10 -18 10 -33 0 -22 2 -24 11 -12 8 12 10 9 6
-12 -2 -17 1 -29 9 -32 8 -3 14 -20 14 -41 0 -22 4 -34 10 -30 9 6 14 -8 11
-27 0 -5 4 -8 10 -8 8 0 7 -6 -2 -17 -12 -15 -12 -16 3 -11 12 5 16 1 13 -18
-1 -13 1 -24 6 -24 4 0 11 -16 15 -35 3 -19 11 -38 17 -42 6 -4 7 -1 2 7 -5 9
-4 11 4 6 6 -4 9 -12 5 -17 -3 -5 0 -17 8 -26 11 -14 11 -16 -2 -8 -12 7 -13
6 -3 -6 6 -8 12 -18 13 -24 1 -5 6 -9 10 -8 4 1 6 -7 3 -17 -3 -12 0 -20 8
-20 7 0 9 -3 6 -7 -4 -3 -1 -13 6 -21 10 -13 9 -15 -3 -8 -9 4 -8 2 2 -7 10
-8 15 -17 11 -20 -3 -4 1 -15 10 -25 9 -10 15 -28 12 -39 -2 -16 0 -20 10 -17
10 4 13 0 10 -14 -2 -11 3 -28 10 -39 8 -10 15 -26 15 -35 0 -10 5 -18 10 -18
6 0 10 -16 10 -36 0 -23 4 -33 11 -28 7 4 9 -1 7 -12 -2 -11 2 -23 9 -29 7 -5
14 -22 15 -37 1 -16 6 -28 11 -28 4 0 5 -4 2 -10 -3 -5 -2 -10 3 -10 8 0 22
-44 21 -65 0 -3 7 -13 16 -21 13 -13 20 -42 16 -67 0 -4 4 -7 10 -7 5 0 8 -4
5 -9 -3 -5 1 -12 9 -15 13 -4 14 -10 5 -26 -8 -16 -8 -20 2 -18 7 2 12 -3 10
-11 -2 -7 5 -22 14 -32 9 -10 14 -27 11 -39 -3 -11 0 -23 5 -27 7 -4 8 -1 3 8
-6 10 -5 11 3 4 7 -6 13 -23 14 -37 1 -15 6 -24 10 -22 4 3 8 -9 8 -25 0 -17
5 -31 10 -31 6 0 10 -14 10 -31 0 -17 4 -28 10 -24 6 3 10 -3 10 -14 0 -12 5
-21 10 -21 6 0 10 -5 10 -11 0 -5 -4 -7 -10 -4 -5 3 -10 2 -10 -2 0 -5 9 -14
21 -21 17 -11 19 -16 7 -29 -7 -9 -8 -14 -2 -10 13 8 27 -19 18 -34 -3 -5 2
-12 10 -15 9 -3 14 -10 11 -14 -7 -12 6 -41 15 -35 5 3 7 -6 5 -20 -1 -14 2
-25 7 -25 5 0 7 -4 3 -9 -3 -5 -1 -12 5 -16 5 -3 10 -15 10 -25 0 -10 4 -20
10 -22 5 -2 11 -15 12 -30 1 -16 6 -28 11 -28 4 0 5 -4 2 -10 -3 -5 -1 -10 5
-10 6 0 8 -4 5 -10 -3 -5 0 -10 8 -10 7 0 19 -12 25 -26 7 -14 17 -22 22 -19
6 3 10 0 10 -7 0 -16 55 -42 74 -35 7 3 25 -1 40 -8 15 -8 24 -10 21 -5 -6 9
22 15 53 11 7 -1 19 5 28 13 8 8 21 13 29 10 10 -4 15 0 15 11 0 9 3 14 8 12
4 -2 15 4 25 15 9 10 14 18 11 18 -3 0 2 7 10 16 9 8 13 21 9 27 -4 6 0 8 9 5
11 -5 15 0 14 20 0 16 5 26 11 25 7 -2 10 4 7 12 -4 8 -2 15 3 15 5 0 10 10
11 23 4 54 14 85 27 81 10 -4 12 1 8 16 -3 12 -1 25 6 29 6 4 12 19 13 34 1
15 6 27 11 27 4 0 6 4 2 9 -3 5 -1 12 4 15 5 4 8 17 6 31 -2 20 1 23 11 14 10
-8 12 -6 9 10 -2 11 0 23 5 26 5 3 6 13 3 22 -4 11 -3 14 5 9 8 -5 12 1 12 18
0 14 6 26 13 26 8 0 7 4 -3 10 -10 6 -11 10 -2 10 6 0 12 6 12 14 0 8 6 17 13
19 10 4 10 6 0 6 -7 1 -13 6 -13 12 0 5 5 7 10 4 10 -6 14 7 11 33 -1 7 4 15
12 18 7 2 13 15 12 27 -1 12 0 28 3 35 4 11 6 11 14 0 6 -9 8 -5 6 12 -2 14 4
31 12 38 8 8 9 11 3 7 -7 -3 -13 -1 -13 4 0 6 4 11 9 11 5 0 12 7 15 16 4 10
2 13 -7 8 -7 -5 -6 -1 3 10 8 10 15 23 16 30 5 30 10 42 24 54 13 12 13 13 0
6 -13 -7 -13 -5 -2 9 8 9 10 22 6 28 -4 8 -3 9 4 5 8 -5 12 3 12 22 0 16 7 35
15 42 8 6 14 15 13 18 -2 22 3 42 11 38 5 -4 8 2 6 11 -1 10 5 27 14 37 11 14
12 17 2 11 -11 -6 -11 -3 2 14 8 13 13 30 10 38 -3 8 0 13 8 11 10 -2 13 5 11
25 -2 15 1 27 7 27 6 0 10 3 10 8 -5 27 2 52 13 46 8 -5 9 -2 5 9 -4 10 -2 17
4 17 6 0 8 7 5 15 -3 9 0 18 8 21 7 3 12 18 11 34 -1 16 2 27 6 25 9 -6 31 54
23 66 -3 5 0 9 6 9 6 0 8 4 5 10 -3 5 2 10 12 10 10 0 14 4 8 8 -15 10 -18 35
-4 26 9 -5 10 -2 6 9 -3 10 -2 17 3 17 5 0 6 7 3 17 -5 12 -3 14 7 8 10 -6 12
-4 7 9 -4 10 1 24 11 34 9 9 17 30 17 46 -1 15 4 30 11 33 6 2 10 15 8 29 -1
17 3 24 14 24 15 0 15 2 2 10 -10 6 -11 10 -2 10 6 0 12 9 12 19 0 11 5 23 11
26 6 4 8 13 5 21 -3 8 -1 14 4 14 6 0 9 6 8 13 -2 6 3 11 11 9 12 -3 12 0 1
12 -9 12 -10 16 0 16 7 0 10 7 6 15 -3 8 2 19 12 24 14 8 14 11 2 11 -12 0
-11 3 3 11 14 8 16 14 6 25 -9 11 -8 14 4 14 10 0 15 7 12 19 -2 11 3 22 11
25 8 3 14 13 12 22 -3 16 17 24 64 25 10 0 21 5 24 11 5 7 2 8 -7 3 -8 -5 -11
-5 -7 0 4 4 26 9 50 12 23 2 46 9 50 16 6 9 8 8 8 -3 0 -12 2 -13 9 -1 5 7 13
11 19 7 5 -3 12 0 15 8 3 7 18 14 32 14 15 0 31 6 36 13 7 12 9 11 9 -1 0 -10
3 -11 8 -4 4 7 18 14 32 16 14 2 24 9 23 15 -1 6 6 9 18 6 12 -4 25 0 30 8 7
12 9 12 9 -1 0 -11 2 -12 8 -3 5 7 20 14 34 15 15 1 24 6 22 10 -3 4 -2 8 3 9
29 3 47 9 54 21 5 7 9 9 9 5 0 -4 8 -3 18 2 13 7 23 6 31 -2 10 -9 11 -8 5 7
-6 15 -4 18 8 13 10 -3 19 0 22 9 3 8 9 14 13 13 22 -4 34 2 27 14 -5 7 0 6
11 -3 11 -9 16 -10 11 -2 -5 8 1 12 18 12 17 0 24 4 20 13 -3 9 3 13 18 12 13
-1 29 7 36 17 12 16 16 17 30 6 12 -10 14 -10 8 0 -7 11 5 17 28 13 5 -1 6 5
2 14 -4 13 -2 14 14 5 16 -8 20 -8 18 2 -2 7 3 12 10 10 6 -1 12 2 12 8 0 5 9
10 19 10 11 0 21 5 23 10 2 6 13 12 25 12 13 1 19 7 16 15 -4 9 0 11 11 7 9
-3 16 -1 16 5 0 6 7 11 16 11 9 0 12 5 8 13 -5 7 0 6 11 -3 11 -9 16 -10 11
-2 -4 7 -2 12 7 12 8 0 17 7 21 15 3 8 12 15 21 15 8 0 15 5 15 10 0 6 9 10
20 10 11 0 20 5 20 10 0 6 7 10 15 10 9 0 18 6 21 14 3 9 12 12 21 9 11 -4 14
-2 9 5 -4 7 -1 12 8 12 9 0 16 4 16 10 0 5 16 17 35 26 19 9 32 20 29 25 -3 5
-2 9 3 8 25 -4 43 3 43 18 0 9 3 13 6 10 4 -4 15 3 25 14 10 11 25 22 34 23 8
1 16 6 16 12 0 10 50 39 62 36 4 -1 6 1 6 5 -4 23 3 33 21 33 11 0 20 7 20 16
0 8 5 12 10 9 6 -3 10 1 10 9 0 10 6 13 15 9 9 -3 15 -2 13 3 -2 5 -1 9 2 9
12 0 66 61 62 69 -3 5 1 7 8 4 15 -5 66 39 62 53 -1 5 1 8 5 8 21 -3 33 2 33
15 0 8 7 17 16 20 8 3 12 11 8 17 -4 8 -3 9 4 5 7 -4 12 -2 12 3 0 6 7 11 16
11 8 0 13 4 10 9 -3 5 1 12 10 15 8 3 12 10 9 16 -4 6 1 7 11 3 12 -4 15 -3
10 5 -4 7 -2 12 4 12 6 0 8 5 4 13 -5 7 0 6 11 -3 10 -8 16 -10 12 -3 -4 6 -3
14 3 18 6 4 8 11 5 16 -3 5 1 6 10 3 9 -4 15 -3 13 2 -4 14 34 54 45 47 6 -3
7 -1 3 5 -4 7 -2 12 4 12 6 0 8 5 5 10 -3 6 2 10 11 10 10 0 14 3 11 6 -4 4 3
15 14 25 11 9 21 21 22 26 1 4 5 7 10 5 4 -1 7 3 7 8 0 6 16 26 35 46 19 19
35 39 35 45 0 6 5 7 12 3 6 -4 8 -3 5 3 -4 6 0 16 8 23 8 7 15 19 15 27 0 8 3
12 8 10 4 -3 12 1 19 8 10 11 10 15 0 18 -7 3 -4 6 6 6 9 1 17 8 17 17 0 8 5
12 10 9 6 -3 10 1 10 10 0 10 5 13 13 9 7 -5 7 -2 -2 10 -12 15 -12 17 0 14 8
-2 13 3 11 10 -1 6 4 12 12 12 9 0 13 7 11 19 -3 14 1 18 11 14 10 -4 12 0 7
13 -4 11 -3 15 5 11 13 -9 44 51 35 67 -4 6 1 4 11 -3 16 -13 17 -13 15 0 -4
18 35 81 45 72 4 -4 4 0 0 10 -3 10 -1 17 5 17 6 0 11 9 11 20 0 11 6 20 14
20 10 0 13 7 11 21 -3 14 0 19 9 16 10 -4 13 2 11 19 -2 17 1 21 9 15 8 -7 12
-4 13 10 1 10 9 27 18 36 9 9 14 24 12 34 -3 10 0 17 7 16 6 -1 10 6 8 17 -2
11 1 15 7 11 10 -5 15 7 12 28 0 4 4 7 10 7 6 0 9 7 5 15 -3 9 3 19 15 26 11
6 18 13 15 16 -3 4 1 14 9 23 9 10 15 24 13 31 -2 8 3 13 11 11 12 -3 12 -1 0
14 -9 12 -9 15 -1 10 11 -6 18 18 13 47 -1 5 3 6 9 2 5 -3 10 1 10 9 0 9 6 16
13 16 8 0 7 4 -3 10 -13 8 -13 10 2 10 11 0 16 6 13 20 -2 11 0 20 6 20 5 0 9
9 9 20 0 11 4 20 9 20 5 0 11 7 14 14 4 11 1 13 -10 9 -11 -4 -9 1 6 16 12 12
20 29 17 37 -3 9 -1 12 4 9 6 -3 10 3 10 15 0 11 6 31 13 43 8 12 13 29 13 37
-1 8 4 21 11 28 7 7 9 20 6 29 -5 12 -3 14 8 8 12 -8 12 -6 0 9 -8 9 -10 16
-5 15 21 -4 28 2 14 11 -11 7 -11 10 -2 10 7 0 10 5 7 10 -3 5 -1 10 6 10 8 0
7 5 -2 17 -10 11 -10 14 -1 9 6 -4 13 -2 13 3 3 21 4 26 13 40 6 9 5 12 -2 7
-6 -3 -9 1 -8 11 2 9 8 19 14 21 7 2 12 17 12 33 0 16 5 29 13 29 8 0 7 4 -3
10 -10 6 -11 10 -2 10 7 0 12 13 12 31 0 21 4 28 13 23 8 -5 8 -2 -2 9 -10 13
-10 17 -1 17 8 0 11 9 8 25 -3 14 -1 25 5 25 6 0 7 3 4 7 -4 3 -1 13 6 21 9
13 9 14 0 8 -7 -4 -13 -2 -13 4 0 6 6 13 14 16 8 3 12 13 9 25 -3 10 0 25 6
33 9 10 9 16 1 21 -8 5 -8 11 1 21 7 8 12 27 13 42 1 15 5 33 9 40 5 6 4 12
-2 12 -12 0 -6 37 8 54 7 9 7 17 -2 26 -8 9 -8 11 0 6 8 -4 11 6 9 34 -2 22 0
40 3 40 4 0 7 9 8 20 1 11 -4 20 -10 20 -8 0 -9 2 -1 8 15 10 27 85 12 76 -7
-5 -8 -2 -3 7 5 7 10 36 11 64 7 135 6 173 0 183 -4 7 -2 12 4 12 8 0 8 6 0
20 -7 13 -7 20 -1 20 6 0 8 6 5 14 -3 7 -6 64 -7 127 -2 63 -7 121 -12 128 -5
9 -4 12 1 8 6 -3 11 3 11 14 1 10 -3 19 -8 19 -6 0 -7 -5 -3 -12 4 -7 3 -8 -4
-4 -9 5 -8 16 2 41 10 24 11 32 3 29 -8 -3 -12 10 -11 41 0 25 -3 45 -8 45 -4
0 -8 5 -8 11 0 5 4 8 9 4 6 -3 8 4 6 17 -3 13 -9 24 -15 26 -5 2 -10 8 -10 13
0 6 4 8 8 5 5 -3 9 1 9 9 0 8 -4 15 -9 15 -5 0 -7 12 -5 28 2 15 -2 39 -9 53
-10 20 -10 29 -1 39 9 10 9 11 0 6 -12 -7 -19 32 -14 73 2 8 -2 10 -11 5 -9
-5 -8 -2 2 11 9 11 10 16 3 11 -10 -5 -13 3 -13 29 0 20 -4 34 -8 31 -4 -2 -9
5 -9 17 -2 17 0 19 7 7 6 -9 10 -10 10 -3 0 6 -4 15 -10 18 -5 3 -10 17 -10
31 0 18 -4 23 -12 18 -9 -5 -9 -2 1 9 9 11 10 17 2 17 -6 0 -10 3 -10 8 1 4 1
20 0 36 -1 21 -5 27 -16 22 -20 -7 -19 4 3 21 12 9 13 13 2 11 -9 -2 -14 6
-15 22 0 14 -5 24 -10 23 -6 -1 -9 13 -9 30 1 18 -3 41 -9 52 -6 11 -11 23
-12 27 0 3 -3 9 -7 13 -4 4 -5 12 -2 19 2 6 -5 22 -16 34 -12 13 -16 22 -8 22
9 0 9 3 0 12 -7 7 -12 25 -12 40 0 15 -5 28 -11 28 -5 0 -7 5 -4 10 3 6 1 10
-5 10 -6 0 -9 4 -6 9 3 5 -1 11 -9 15 -8 3 -12 12 -9 19 3 8 -1 21 -8 28 -7 8
-14 25 -16 39 -1 13 -8 27 -14 31 -6 4 -8 16 -6 27 4 15 2 19 -8 15 -10 -4
-14 4 -14 27 0 18 -4 29 -10 25 -6 -4 -10 5 -10 20 0 15 -4 24 -10 20 -6 -3
-10 5 -10 19 0 13 -5 26 -10 28 -6 2 -12 13 -13 25 0 12 -5 19 -9 17 -4 -3 -8
0 -8 5 0 22 -2 26 -15 34 -7 4 -12 18 -10 32 2 20 0 23 -12 14 -11 -9 -12 -9
-8 4 4 8 1 18 -4 22 -6 3 -8 11 -5 17 5 7 1 9 -9 5 -11 -4 -14 -2 -10 9 3 8
-2 23 -12 34 -9 10 -14 24 -9 31 4 7 3 10 -4 5 -14 -8 -36 30 -26 46 4 6 3 8
-3 5 -6 -4 -16 7 -23 23 -7 17 -16 30 -21 30 -5 0 -9 6 -9 14 0 8 -7 16 -15
20 -9 3 -12 12 -8 22 5 13 2 16 -10 11 -12 -4 -15 -1 -12 14 2 10 -1 19 -6 19
-6 0 -7 5 -4 10 4 6 1 9 -7 8 -7 -2 -12 3 -11 10 2 6 -2 12 -8 12 -5 0 -7 5
-4 10 3 6 1 10 -5 10 -6 0 -15 11 -22 25 -6 13 -16 22 -21 18 -6 -4 -8 0 -4
10 4 11 1 17 -9 17 -8 0 -12 5 -8 11 3 6 -3 21 -14 33 -54 56 -72 78 -72 86 0
5 -8 14 -17 19 -10 6 -14 11 -10 11 12 0 -20 30 -32 30 -6 0 -7 7 -4 17 4 11
3 14 -5 9 -7 -4 -12 -1 -12 7 0 8 -10 19 -22 25 -13 6 -17 11 -10 11 8 1 0 13
-17 27 -17 14 -28 30 -25 35 3 5 2 8 -3 7 -12 -4 -63 48 -56 56 4 3 -1 6 -10
6 -9 0 -17 7 -17 16 0 9 -9 18 -20 21 -11 3 -20 12 -20 19 0 8 -7 17 -15 20
-8 4 -12 11 -8 17 3 6 1 7 -6 3 -6 -4 -14 0 -17 8 -3 9 -13 16 -21 16 -8 0
-12 4 -9 9 3 5 -6 16 -19 25 -14 9 -23 21 -20 26 3 6 0 7 -8 4 -8 -3 -18 0
-23 7 -5 8 -3 10 7 4 8 -4 1 4 -16 19 -16 14 -34 25 -38 26 -5 0 -5 4 -2 10 3
6 -1 7 -9 4 -9 -3 -16 -1 -16 6 0 17 -26 40 -47 40 -15 0 -16 2 -3 10 13 8 12
10 -2 10 -10 0 -23 9 -30 20 -7 11 -21 20 -31 20 -13 0 -17 5 -13 15 4 11 -3
17 -24 22 -16 3 -27 9 -24 14 3 5 -6 13 -19 18 -14 6 -43 28 -65 50 -22 23
-47 41 -56 41 -8 0 -19 6 -23 14 -4 7 -25 22 -45 33 -21 11 -35 23 -31 27 3 3
-4 6 -16 6 -12 0 -19 4 -16 10 3 6 -3 10 -14 10 -12 0 -21 7 -21 16 0 8 -5 12
-10 9 -6 -4 -24 5 -41 19 -17 14 -37 26 -44 26 -8 0 -19 9 -25 21 -7 11 -14
18 -18 15 -3 -3 -16 1 -29 9 -13 9 -28 13 -34 10 -5 -4 -8 -1 -7 6 2 7 -3 14
-9 15 -7 1 -16 3 -20 4 -5 1 -11 2 -16 1 -4 0 -6 2 -5 6 2 5 -1 10 -7 12 -5 2
-15 11 -21 19 -7 9 -18 13 -28 9 -10 -4 -19 -1 -22 8 -4 8 -17 15 -30 15 -13
0 -24 5 -24 10 0 6 -7 10 -16 10 -8 0 -13 4 -10 8 3 5 0 9 -7 9 -21 1 -42 8
-48 16 -4 5 -18 10 -32 10 -14 1 -25 7 -24 12 1 6 -8 10 -20 9 -12 0 -20 3
-17 8 5 7 -10 12 -28 9 -5 0 -8 4 -8 10 0 5 -4 7 -10 4 -5 -3 -10 -1 -10 5 0
6 -8 10 -17 8 -10 -2 -17 2 -16 9 2 7 -6 10 -21 7 -13 -2 -29 3 -36 11 -7 8
-21 15 -30 15 -25 0 -51 11 -46 19 3 4 -6 8 -20 9 -55 5 -62 7 -57 15 3 5 -4
6 -16 2 -17 -5 -20 -3 -14 11 5 14 3 15 -14 5 -16 -8 -24 -7 -38 9 -9 10 -25
17 -36 15 -10 -2 -25 3 -33 11 -10 10 -16 10 -18 2 -3 -8 -11 -7 -27 4 -12 9
-31 14 -42 11 -10 -3 -19 0 -19 6 0 6 -17 11 -40 11 -27 0 -43 5 -46 15 -4 8
-10 12 -15 9 -5 -3 -6 -11 -2 -17 3 -7 -2 -5 -13 4 -10 9 -25 14 -33 11 -8 -2
-11 0 -8 5 3 5 -2 9 -11 10 -9 1 -34 2 -54 4 -21 1 -38 7 -38 13 0 7 -16 11
-40 9 -26 -1 -40 2 -40 10 0 7 -4 6 -10 -3 -6 -9 -10 -11 -10 -3 0 7 -7 10
-15 7 -8 -4 -21 -1 -29 5 -7 6 -15 9 -18 6 -2 -3 -19 -1 -36 4 -21 6 -32 6
-32 0 0 -6 -4 -7 -10 -4 -12 7 -47 16 -77 19 -12 1 -25 5 -29 9 -4 3 -14 2
-23 -3 -10 -5 -23 -5 -30 -1 -7 5 -26 7 -42 5 -17 -2 -28 0 -25 4 7 11 -85 9
-103 -2 -9 -6 -12 -5 -8 1 8 13 -442 17 -462 4 -9 -6 -22 -6 -32 0 -12 6 -20
5 -24 -1z m589 -12 c-3 -4 -11 -5 -19 -1 -21 7 -19 12 4 10 11 0 18 -5 15 -9z
m-4241 -3643 c4 -8 3 -16 -1 -19 -4 -3 -9 4 -9 15 -2 23 3 25 10 4z"/>
</g>
</svg>
